<svg width="120" height="120" viewBox="0 0 120 120" fill="none" xmlns="http://www.w3.org/2000/svg">
<g clip-path="url(#clip0_149_7967)">
<rect x="46.7168" y="34.3125" width="73.2828" height="79.695" rx="4.03734" fill="#6646CC"/>
<rect x="24.7324" y="5" width="72.3668" height="98.0157" rx="4.03734" fill="#CAC3FF" fill-opacity="0.64"/>
<rect x="30.3184" y="13.9414" width="39.6845" height="5.58936" rx="1.11787" fill="white" fill-opacity="0.8"/>
<rect x="31.2344" y="25.125" width="60.3651" height="3.35362" rx="0.558936" fill="white" fill-opacity="0.32"/>
<rect x="31.2344" y="31.2734" width="60.3651" height="3.35362" rx="0.558936" fill="white" fill-opacity="0.32"/>
<rect x="31.2344" y="37.4219" width="37.4487" height="3.35362" rx="0.558936" fill="white" fill-opacity="0.32"/>
<rect x="62.1797" y="53.0703" width="22.9164" height="5.03043" rx="0.558936" fill="white" fill-opacity="0.8"/>
<rect x="62.1797" y="60.3359" width="28.5058" height="2.23575" rx="0.558936" fill="white" fill-opacity="0.32"/>
<rect x="62.1797" y="64.25" width="21.7985" height="2.23575" rx="0.558936" fill="white" fill-opacity="0.32"/>
<rect x="30.3184" y="53.0703" width="27.9468" height="27.9468" rx="0.558936" fill="white" fill-opacity="0.32"/>
<g filter="url(#filter2_d_149_7967)">
<path d="M63.5844 26.2396L61.8343 17.3195L69.8701 21.7224L65.9118 22.8708L63.5844 26.2396Z" fill="black"/>
<path d="M63.5844 26.2396L61.8343 17.3195L69.8701 21.7224L65.9118 22.8708L63.5844 26.2396Z" stroke="white" stroke-width="0.558936"/>
</g>
<g filter="url(#filter3_d_149_7967)">
<path d="M68.748 26.2383H102.163C104.632 26.2383 106.634 28.2402 106.634 30.7098V38.7098C106.634 41.1793 104.632 43.1813 102.163 43.1813H73.2195C70.75 43.1813 68.748 41.1793 68.748 38.7098V26.2383Z" fill="#6646CC" shape-rendering="crispEdges"/>
<path d="M102.162 26.5176C104.477 26.5176 106.354 28.3948 106.354 30.71V38.71C106.354 41.0251 104.477 42.9014 102.162 42.9014H73.2197C70.9046 42.9014 69.0274 41.0251 69.0273 38.71V26.5176H102.162Z" stroke="#A99CFF" stroke-width="0.558936" shape-rendering="crispEdges"/>
<path d="M80.2001 36.7895C79.7678 36.7895 79.3824 36.6836 79.044 36.4719C78.7056 36.2601 78.4392 35.9653 78.2449 35.5876C78.0527 35.2099 77.9567 34.7721 77.9567 34.2743C77.9567 33.7743 78.0527 33.3355 78.2449 32.9578C78.4392 32.5779 78.7056 32.282 79.044 32.0702C79.3824 31.8585 79.7678 31.7526 80.2001 31.7526C80.6346 31.7526 81.021 31.8585 81.3594 32.0702C81.6978 32.282 81.9631 32.5779 82.1553 32.9578C82.3496 33.3355 82.4467 33.7743 82.4467 34.2743C82.4467 34.7721 82.3496 35.2099 82.1553 35.5876C81.9631 35.9653 81.6978 36.2601 81.3594 36.4719C81.021 36.6836 80.6346 36.7895 80.2001 36.7895ZM80.2001 36.1247C80.4817 36.1247 80.7372 36.0538 80.9664 35.9118C81.1957 35.7677 81.378 35.5581 81.5134 35.283C81.6487 35.0057 81.7164 34.6695 81.7164 34.2743C81.7164 33.877 81.6487 33.5396 81.5134 33.2623C81.378 32.9851 81.1957 32.7755 80.9664 32.6335C80.7372 32.4894 80.4817 32.4174 80.2001 32.4174C79.9206 32.4174 79.6662 32.4894 79.437 32.6335C79.2077 32.7755 79.0254 32.9851 78.8901 33.2623C78.7547 33.5396 78.687 33.877 78.687 34.2743C78.687 34.6695 78.7547 35.0057 78.8901 35.283C79.0254 35.5581 79.2077 35.7677 79.437 35.9118C79.6662 36.0538 79.9206 36.1247 80.2001 36.1247ZM83.8648 36.7109L82.7939 33.2525H83.5177L83.9139 34.6673C83.9729 34.8769 84.0286 35.0909 84.081 35.3092C84.1355 35.5276 84.189 35.7437 84.2414 35.9577C84.2982 35.7437 84.3539 35.5276 84.4085 35.3092C84.4652 35.0909 84.522 34.8769 84.5788 34.6673L84.9816 33.2525H85.6399L86.0362 34.6673C86.0951 34.8747 86.1519 35.0865 86.2065 35.3027C86.261 35.5188 86.3156 35.7328 86.3702 35.9446C86.4226 35.7328 86.475 35.5188 86.5274 35.3027C86.582 35.0865 86.6388 34.8747 86.6977 34.6673L87.0973 33.2525H87.8276L86.7567 36.7109H86.0362L85.5973 35.2044C85.5471 35.0298 85.498 34.8507 85.4499 34.6673C85.4041 34.4839 85.3582 34.3016 85.3124 34.1204C85.2643 34.3016 85.2163 34.4839 85.1683 34.6673C85.1224 34.8507 85.0733 35.0298 85.0209 35.2044L84.5755 36.7109H83.8648ZM88.9902 34.7197V36.7109H88.2992V33.2525H88.9771V33.7732C89.2129 33.3802 89.5612 33.1837 90.0218 33.1837C90.2598 33.1837 90.4727 33.2361 90.6605 33.3409C90.8504 33.4436 91 33.5964 91.1092 33.7994C91.2183 34.0025 91.2729 34.2547 91.2729 34.556V36.7109H90.5819V34.6411C90.5819 34.3638 90.5153 34.1553 90.3821 34.0156C90.2489 33.8737 90.0633 33.8027 89.8253 33.8027C89.5895 33.8027 89.3909 33.8759 89.2293 34.0221C89.0699 34.1662 88.9902 34.3988 88.9902 34.7197ZM93.5294 36.7895C93.1866 36.7895 92.8919 36.712 92.6451 36.557C92.4006 36.402 92.2117 36.1891 92.0786 35.9184C91.9476 35.6455 91.8821 35.3354 91.8821 34.9883C91.8821 34.6368 91.9508 34.3245 92.0884 34.0516C92.2259 33.7787 92.4159 33.5647 92.6582 33.4097C92.9006 33.2525 93.179 33.1739 93.4934 33.1739C93.8209 33.1739 94.1047 33.2503 94.3449 33.4032C94.5872 33.556 94.775 33.7689 94.9082 34.0418C95.0414 34.3125 95.108 34.6258 95.108 34.9817V35.1684H92.5633C92.5764 35.4806 92.6659 35.7328 92.8318 35.9249C92.9999 36.1171 93.2357 36.2131 93.5392 36.2131C93.7663 36.2131 93.953 36.1618 94.0992 36.0592C94.2455 35.9566 94.3427 35.8234 94.3907 35.6597H95.0556C95.0141 35.8824 94.9213 36.0789 94.7772 36.2492C94.6353 36.4195 94.4562 36.5526 94.2401 36.6487C94.0261 36.7426 93.7892 36.7895 93.5294 36.7895ZM92.5698 34.6444H94.4333C94.4049 34.3693 94.3078 34.1521 94.1418 33.9927C93.9759 33.8311 93.7619 33.7503 93.4999 33.7503C93.2379 33.7503 93.0239 33.8311 92.858 33.9927C92.6943 34.1521 92.5982 34.3693 92.5698 34.6444ZM95.7073 36.7109V33.2525H96.3688V33.8125H96.3819C96.4452 33.6226 96.5446 33.4752 96.68 33.3704C96.8175 33.2634 96.9965 33.2099 97.2171 33.2099C97.2695 33.2099 97.3175 33.2121 97.3612 33.2165C97.4048 33.2209 97.4409 33.2241 97.4692 33.2263V33.8715C97.443 33.8649 97.3961 33.8584 97.3284 33.8518C97.2607 33.8431 97.1865 33.8387 97.1057 33.8387C96.9114 33.8387 96.7444 33.9064 96.6046 34.0418C96.4671 34.1772 96.3983 34.3857 96.3983 34.6673V36.7109H95.7073Z" fill="white"/>
</g>
<g filter="url(#filter4_d_149_7967)">
<path d="M38.146 72.0599L39.8962 63.1398L31.8603 67.5427L35.8187 68.6911L38.146 72.0599Z" fill="black"/>
<path d="M38.146 72.0599L39.8962 63.1398L31.8603 67.5427L35.8187 68.6911L38.146 72.0599Z" stroke="white" stroke-width="0.558936"/>
</g>
<g filter="url(#filter5_d_149_7967)">
<path d="M0 76.5301C0 74.0605 2.00195 72.0586 4.47149 72.0586H31.886V84.5301C31.886 86.9996 29.884 89.0016 27.4145 89.0016H4.47149C2.00195 89.0016 0 86.9996 0 84.5301V76.5301Z" fill="#8070E4" shape-rendering="crispEdges"/>
<path d="M4.47168 72.3379H31.6064V84.5303C31.6063 86.8454 29.7292 88.7217 27.4141 88.7217H4.47168C2.15655 88.7217 0.279399 86.8454 0.279297 84.5303V76.5303C0.279297 74.2151 2.15649 72.3379 4.47168 72.3379Z" stroke="#6646CC" stroke-width="0.558936" shape-rendering="crispEdges"/>
<path d="M11.3014 82.6099C10.9106 82.6099 10.57 82.5356 10.2796 82.3871C9.99137 82.2365 9.76648 82.0291 9.60491 81.7649C9.44553 81.5007 9.36584 81.1994 9.36584 80.861V77.6515H10.0896V80.802C10.0896 81.1361 10.1977 81.4112 10.4138 81.6273C10.6322 81.8435 10.928 81.9516 11.3014 81.9516C11.6769 81.9516 11.9728 81.8435 12.1889 81.6273C12.4072 81.4112 12.5164 81.1361 12.5164 80.802V77.6515H13.2402V80.861C13.2402 81.1994 13.1594 81.5007 12.9978 81.7649C12.8384 82.0291 12.6136 82.2365 12.3232 82.3871C12.0328 82.5356 11.6922 82.6099 11.3014 82.6099ZM15.3362 82.6131C15.072 82.6131 14.834 82.5706 14.6222 82.4854C14.4105 82.4002 14.2391 82.2736 14.1081 82.1055C13.9792 81.9374 13.9072 81.7289 13.8919 81.48H14.5731C14.6124 81.8686 14.8624 82.0629 15.3231 82.0629C15.5414 82.0629 15.7139 82.0182 15.8405 81.9286C15.9694 81.8391 16.0338 81.7256 16.0338 81.588C16.0338 81.4701 15.9879 81.3763 15.8962 81.3064C15.8045 81.2343 15.6844 81.1819 15.536 81.1492L14.9628 81.0215C14.3013 80.8774 13.9705 80.5477 13.9705 80.0324C13.9705 79.7267 14.0917 79.4778 14.334 79.2857C14.5786 79.0936 14.8984 78.9975 15.2936 78.9975C15.6844 78.9975 16.0054 79.099 16.2565 79.3021C16.5097 79.503 16.6407 79.7781 16.6495 80.1274H15.9879C15.9857 79.9593 15.9224 79.8206 15.798 79.7115C15.6735 79.6001 15.5087 79.5444 15.3034 79.5444C15.1069 79.5444 14.9508 79.5903 14.8351 79.682C14.7194 79.7737 14.6615 79.8861 14.6615 80.0193C14.6615 80.1372 14.7052 80.2322 14.7925 80.3042C14.8821 80.3763 15.0043 80.4298 15.1593 80.4647L15.7488 80.5957C16.0851 80.6699 16.3329 80.7846 16.4923 80.9396C16.6517 81.0946 16.7314 81.2977 16.7314 81.5487C16.7314 81.7693 16.6702 81.9592 16.548 82.1186C16.4279 82.2758 16.263 82.3981 16.0534 82.4854C15.8438 82.5706 15.6047 82.6131 15.3362 82.6131ZM18.8208 82.6099C18.478 82.6099 18.1833 82.5323 17.9366 82.3773C17.692 82.2223 17.5032 82.0094 17.37 81.7387C17.239 81.4658 17.1735 81.1557 17.1735 80.8086C17.1735 80.4571 17.2423 80.1449 17.3798 79.8719C17.5174 79.599 17.7073 79.385 17.9497 79.23C18.192 79.0728 18.4704 78.9942 18.7848 78.9942C19.1123 78.9942 19.3961 79.0706 19.6363 79.2235C19.8786 79.3763 20.0664 79.5892 20.1996 79.8621C20.3328 80.1328 20.3994 80.4462 20.3994 80.802V80.9887H17.8547C17.8678 81.3009 17.9573 81.5531 18.1232 81.7452C18.2914 81.9374 18.5272 82.0334 18.8306 82.0334C19.0577 82.0334 19.2444 81.9821 19.3907 81.8795C19.537 81.7769 19.6341 81.6437 19.6821 81.48H20.347C20.3055 81.7027 20.2127 81.8992 20.0686 82.0695C19.9267 82.2398 19.7476 82.373 19.5315 82.469C19.3175 82.5629 19.0806 82.6099 18.8208 82.6099ZM17.8612 80.4647H19.7247C19.6963 80.1896 19.5992 79.9724 19.4332 79.813C19.2673 79.6514 19.0533 79.5706 18.7913 79.5706C18.5293 79.5706 18.3154 79.6514 18.1494 79.813C17.9857 79.9724 17.8896 80.1896 17.8612 80.4647ZM20.9987 82.5312V79.0728H21.6603V79.6329H21.6734C21.7367 79.4429 21.836 79.2955 21.9714 79.1907C22.1089 79.0837 22.288 79.0303 22.5085 79.0303C22.5609 79.0303 22.6089 79.0324 22.6526 79.0368C22.6963 79.0412 22.7323 79.0444 22.7607 79.0466V79.6918C22.7345 79.6853 22.6875 79.6787 22.6198 79.6722C22.5521 79.6634 22.4779 79.6591 22.3971 79.6591C22.2028 79.6591 22.0358 79.7267 21.8961 79.8621C21.7585 79.9975 21.6897 80.206 21.6897 80.4876V82.5312H20.9987Z" fill="white"/>
</g>
</g>
<defs>
<filter id="filter2_d_149_7967" x="60.3255" y="16.2301" width="11.3881" height="12.392" filterUnits="userSpaceOnUse" color-interpolation-filters="sRGB">
<feFlood flood-opacity="0" result="BackgroundImageFix"/>
<feColorMatrix in="SourceAlpha" type="matrix" values="0 0 0 0 0 0 0 0 0 0 0 0 0 0 0 0 0 0 127 0" result="hardAlpha"/>
<feOffset dy="0.558936"/>
<feGaussianBlur stdDeviation="0.558936"/>
<feComposite in2="hardAlpha" operator="out"/>
<feColorMatrix type="matrix" values="0 0 0 0 0 0 0 0 0 0 0 0 0 0 0 0 0 0 0.25 0"/>
<feBlend mode="normal" in2="BackgroundImageFix" result="effect1_dropShadow_149_7967"/>
<feBlend mode="normal" in="SourceGraphic" in2="effect1_dropShadow_149_7967" result="shape"/>
</filter>
<filter id="filter3_d_149_7967" x="65.3944" y="22.8847" width="49.0654" height="28.1201" filterUnits="userSpaceOnUse" color-interpolation-filters="sRGB">
<feFlood flood-opacity="0" result="BackgroundImageFix"/>
<feColorMatrix in="SourceAlpha" type="matrix" values="0 0 0 0 0 0 0 0 0 0 0 0 0 0 0 0 0 0 127 0" result="hardAlpha"/>
<feOffset dx="2.23575" dy="2.23575"/>
<feGaussianBlur stdDeviation="2.79468"/>
<feComposite in2="hardAlpha" operator="out"/>
<feColorMatrix type="matrix" values="0 0 0 0 0.4 0 0 0 0 0.27451 0 0 0 0 0.8 0 0 0 0.24 0"/>
<feBlend mode="normal" in2="BackgroundImageFix" result="effect1_dropShadow_149_7967"/>
<feBlend mode="normal" in="SourceGraphic" in2="effect1_dropShadow_149_7967" result="shape"/>
</filter>
<filter id="filter4_d_149_7967" x="30.0169" y="62.0504" width="11.3881" height="12.392" filterUnits="userSpaceOnUse" color-interpolation-filters="sRGB">
<feFlood flood-opacity="0" result="BackgroundImageFix"/>
<feColorMatrix in="SourceAlpha" type="matrix" values="0 0 0 0 0 0 0 0 0 0 0 0 0 0 0 0 0 0 127 0" result="hardAlpha"/>
<feOffset dy="0.558936"/>
<feGaussianBlur stdDeviation="0.558936"/>
<feComposite in2="hardAlpha" operator="out"/>
<feColorMatrix type="matrix" values="0 0 0 0 0 0 0 0 0 0 0 0 0 0 0 0 0 0 0.25 0"/>
<feBlend mode="normal" in2="BackgroundImageFix" result="effect1_dropShadow_149_7967"/>
<feBlend mode="normal" in="SourceGraphic" in2="effect1_dropShadow_149_7967" result="shape"/>
</filter>
<filter id="filter5_d_149_7967" x="-3.35362" y="68.705" width="43.0654" height="28.1201" filterUnits="userSpaceOnUse" color-interpolation-filters="sRGB">
<feFlood flood-opacity="0" result="BackgroundImageFix"/>
<feColorMatrix in="SourceAlpha" type="matrix" values="0 0 0 0 0 0 0 0 0 0 0 0 0 0 0 0 0 0 127 0" result="hardAlpha"/>
<feOffset dx="2.23575" dy="2.23575"/>
<feGaussianBlur stdDeviation="2.79468"/>
<feComposite in2="hardAlpha" operator="out"/>
<feColorMatrix type="matrix" values="0 0 0 0 0.4 0 0 0 0 0.27451 0 0 0 0 0.8 0 0 0 0.24 0"/>
<feBlend mode="normal" in2="BackgroundImageFix" result="effect1_dropShadow_149_7967"/>
<feBlend mode="normal" in="SourceGraphic" in2="effect1_dropShadow_149_7967" result="shape"/>
</filter>
<clipPath id="clip0_149_7967">
<rect width="120" height="120" fill="white"/>
</clipPath>
</defs>
</svg>
