<svg width="120" height="120" viewBox="0 0 120 120" fill="none" xmlns="http://www.w3.org/2000/svg">
<g clip-path="url(#clip0_149_7995)">
<path d="M40.5079 64.5723C40.5079 82.4122 58.3012 96.8673 80.2555 96.8673C86.0159 96.8673 91.4812 95.8736 96.4186 94.0881C98.2662 95.4389 101.278 97.2865 104.849 98.8391C108.576 100.454 113.063 101.836 117.519 101.836C118.528 101.836 119.429 101.23 119.817 100.299C120.205 99.367 119.988 98.3112 119.289 97.597L119.242 97.5504C119.196 97.5039 119.134 97.4418 119.041 97.3331C118.87 97.1468 118.606 96.8518 118.28 96.4481C117.643 95.6718 116.789 94.5228 115.92 93.0944C114.367 90.517 112.892 87.1322 112.597 83.3282C117.255 78.0493 120.003 71.5747 120.003 64.5723C120.003 46.7324 102.21 32.2773 80.2555 32.2773C58.3012 32.2773 40.5079 46.7324 40.5079 64.5723Z" fill="#6646CC"/>
</g>
<g clip-path="url(#clip1_149_7995)">
<path d="M-0.00230173 56.9702C-0.00230173 65.2328 3.24045 72.8725 8.73663 79.1198C8.38854 83.6083 6.64808 87.6022 4.81602 90.6434C3.80838 92.3289 2.78243 93.6847 2.03129 94.6007C1.64655 95.0587 1.35342 95.4068 1.13358 95.645C1.02365 95.7549 0.95037 95.8465 0.895408 95.9015L0.840446 95.9564C-0.00230169 96.7992 -0.25879 98.0633 0.199225 99.1625C0.65724 100.262 1.71984 100.976 2.91067 100.976C8.16869 100.976 13.4633 99.3457 17.8603 97.4404C22.0557 95.6083 25.6282 93.4282 27.8084 91.8343C33.6343 93.9412 40.0832 95.1137 46.8801 95.1137C72.7855 95.1137 93.7809 78.0572 93.7809 57.0068C93.7809 35.9564 72.8038 18.8633 46.8985 18.8633C20.9931 18.8633 -0.00230173 35.9198 -0.00230173 56.9702ZM29.3107 56.9702C29.3107 58.525 28.693 60.0162 27.5936 61.1156C26.4941 62.2151 25.0029 62.8328 23.4481 62.8328C21.8932 62.8328 20.402 62.2151 19.3026 61.1156C18.2031 60.0162 17.5855 58.525 17.5855 56.9702C17.5855 55.4153 18.2031 53.9241 19.3026 52.8247C20.402 51.7252 21.8932 51.1076 23.4481 51.1076C25.0029 51.1076 26.4941 51.7252 27.5936 52.8247C28.693 53.9241 29.3107 55.4153 29.3107 56.9702ZM52.7611 56.9702C52.7611 58.525 52.1434 60.0162 51.0439 61.1156C49.9445 62.2151 48.4533 62.8328 46.8985 62.8328C45.3436 62.8328 43.8524 62.2151 42.753 61.1156C41.6535 60.0162 41.0359 58.525 41.0359 56.9702C41.0359 55.4153 41.6535 53.9241 42.753 52.8247C43.8524 51.7252 45.3436 51.1076 46.8985 51.1076C48.4533 51.1076 49.9445 51.7252 51.0439 52.8247C52.1434 53.9241 52.7611 55.4153 52.7611 56.9702ZM76.2114 56.9702C76.2114 58.525 75.5938 60.0162 74.4943 61.1156C73.3949 62.2151 71.9037 62.8328 70.3488 62.8328C68.794 62.8328 67.3028 62.2151 66.2034 61.1156C65.1039 60.0162 64.4862 58.525 64.4862 56.9702C64.4862 55.4153 65.1039 53.9241 66.2034 52.8247C67.3028 51.7252 68.794 51.1076 70.3488 51.1076C71.9037 51.1076 73.3949 51.7252 74.4943 52.8247C75.5938 53.9241 76.2114 55.4153 76.2114 56.9702Z" fill="#CAC3FF" fill-opacity="0.64"/>
<path d="M17.5879 56.972C17.5879 55.4171 18.2056 53.9259 19.305 52.8265C20.4045 51.727 21.8956 51.1094 23.4505 51.1094C25.0053 51.1094 26.4965 51.727 27.596 52.8265C28.6954 53.9259 29.3131 55.4171 29.3131 56.972C29.3131 58.5268 28.6954 60.018 27.596 61.1175C26.4965 62.2169 25.0053 62.8346 23.4505 62.8346C21.8956 62.8346 20.4045 62.2169 19.305 61.1175C18.2056 60.018 17.5879 58.5268 17.5879 56.972ZM41.0383 56.972C41.0383 55.4171 41.6559 53.9259 42.7554 52.8265C43.8548 51.727 45.346 51.1094 46.9009 51.1094C48.4557 51.1094 49.9469 51.727 51.0463 52.8265C52.1458 53.9259 52.7635 55.4171 52.7635 56.972C52.7635 58.5268 52.1458 60.018 51.0463 61.1175C49.9469 62.2169 48.4557 62.8346 46.9009 62.8346C45.346 62.8346 43.8548 62.2169 42.7554 61.1175C41.6559 60.018 41.0383 58.5268 41.0383 56.972ZM70.3513 51.1094C71.9061 51.1094 73.3973 51.727 74.4967 52.8265C75.5962 53.9259 76.2138 55.4171 76.2138 56.972C76.2138 58.5268 75.5962 60.018 74.4967 61.1175C73.3973 62.2169 71.9061 62.8346 70.3513 62.8346C68.7964 62.8346 67.3052 62.2169 66.2058 61.1175C65.1063 60.018 64.4887 58.5268 64.4887 56.972C64.4887 55.4171 65.1063 53.9259 66.2058 52.8265C67.3052 51.727 68.7964 51.1094 70.3513 51.1094Z" fill="white"/>
</g>
<defs>
<clipPath id="clip0_149_7995">
<rect width="79.4953" height="79.4953" fill="white" transform="matrix(-1 0 0 1 120 27.3086)"/>
</clipPath>
<clipPath id="clip1_149_7995">
<rect width="93.8015" height="93.8015" fill="white" transform="translate(0 13)"/>
</clipPath>
</defs>
</svg>
