<svg width="421" height="89" viewBox="0 0 421 89" fill="none" xmlns="http://www.w3.org/2000/svg">
<g clip-path="url(#clip0_24277_4052)">
<mask id="mask0_24277_4052" style="mask-type:luminance" maskUnits="userSpaceOnUse" x="0" y="0" width="421" height="89">
<path d="M420.5 0H0.5V89H420.5V0Z" fill="white"/>
</mask>
<g mask="url(#mask0_24277_4052)">
<path d="M112.88 74.7722C103.428 74.7722 96.0425 67.0945 96.0425 57.4482C96.0425 47.802 103.428 40.1243 112.88 40.1243C122.332 40.1243 129.718 47.802 129.718 57.4482C129.718 67.0945 122.332 74.7722 112.88 74.7722ZM112.88 25.8965C94.3893 25.8965 80.7148 39.7663 80.7148 57.4303C80.7148 75.0944 94.3893 88.9642 112.88 88.9642C131.371 88.9642 145.045 75.0944 145.045 57.4303C145.045 39.7663 131.371 25.8965 112.88 25.8965Z" fill="white"/>
<path d="M159.029 39.659C155.973 44.3479 153.961 50.1106 153.961 57.4303C153.961 67.3629 157.879 76.2039 164.779 81.8592C167.78 84.3111 171.284 86.2439 175.183 87.4609C179.532 88.8031 182.945 89 187.295 89C193.638 89 199.262 86.8524 203.988 83.5415V68.92C199.459 72.4456 193.638 75.6491 187.42 75.6491C181.203 75.6491 176.908 73.251 173.872 69.9937C170.655 66.5576 169.056 62.173 169.056 57.484C169.056 51.8287 171.284 47.7841 173.925 44.9563C177.753 40.858 182.892 39.3368 187.42 39.3368C193.997 39.3368 199.442 41.6097 203.988 45.6722V31.0506C199.459 28.1872 193.26 25.968 185.785 25.968C174.914 25.968 164.941 30.6569 159.011 39.7484V39.6769L159.029 39.659Z" fill="white"/>
<path d="M229.592 44.0437C229.592 40.2496 234.103 38.3883 239.871 38.3883C247.346 38.3883 253.545 40.9475 259.313 45.5827V31.3549C255.45 28.6704 248.388 25.8965 240.23 25.8965C227.131 25.8965 215.324 33.0909 215.324 45.2964C215.324 67.4167 248.317 58.8442 248.317 69.8685C248.317 74.6469 243.5 76.4187 237.984 76.3113C230.275 76.3113 221.829 73.8953 215.809 68.8842V83.5057C222.386 86.8882 230.059 88.9642 238.721 88.9642C251.407 88.9642 262.835 82.074 262.835 68.9558C262.835 46.8534 229.592 54.3521 229.592 44.0437Z" fill="white"/>
<path d="M28.8197 72.5709H16.295V16.4829H28.8197C44.5609 16.4829 56.2589 28.8674 56.2589 44.5091C56.2589 60.1507 44.5609 72.5352 28.8197 72.5352V72.5709ZM28.694 1.5929H0.5V87.4431H28.694C52.701 87.4431 72.0361 68.6695 72.0361 44.5091C72.0361 20.3486 52.737 1.5929 28.694 1.5929Z" fill="white"/>
<path d="M279.746 24.5542C273.655 24.5542 268.749 19.6326 268.749 13.5656C268.749 7.49869 273.69 2.57712 279.746 2.57712C285.802 2.57712 290.743 7.49869 290.743 13.5656C290.743 19.6326 285.802 24.5542 279.746 24.5542ZM279.746 0C272.235 0 266.125 6.08486 266.125 13.5656C266.125 21.0465 272.235 27.1313 279.746 27.1313C287.257 27.1313 293.367 21.0465 293.367 13.5656C293.367 6.08486 287.257 0 279.746 0Z" fill="white"/>
<path d="M279.762 17.4668C278 17.4668 276.76 16.0709 276.76 14.478C276.76 12.8853 278 11.4893 279.762 11.4893C281.522 11.4893 282.762 12.8853 282.762 14.478C282.762 16.0709 281.522 17.4668 279.762 17.4668ZM280.93 9.35965C280.93 9.07325 280.983 8.59007 280.983 7.99947V6.65723H278.521V7.99947C278.521 8.59007 278.539 9.09114 278.575 9.35965H272.879V11.6504H275.862C274.873 12.2768 274.317 13.4579 274.317 14.8718C274.317 17.6099 276.491 19.8292 279.779 19.8292C283.067 19.8292 285.242 17.6099 285.242 14.8718C285.242 13.4579 284.667 12.2589 283.696 11.6504H286.679V9.35965H280.965H280.93Z" fill="white"/>
<path d="M362.367 54.2801L351.675 21.5114H351.081L340.39 54.2801H362.385H362.367ZM310.291 87.89L339.958 2.21875H362.78L392.34 87.8721H373.31L366.859 68.1142H335.88L329.429 87.8721H310.273L310.291 87.89Z" fill="white"/>
<path d="M419.76 2.21875H402.023V87.8721H419.76V2.21875Z" fill="white"/>
</g>
</g>
<defs>
<clipPath id="clip0_24277_4052">
<rect width="420" height="89" fill="white" transform="translate(0.5)"/>
</clipPath>
</defs>
</svg>
