<svg width="121" height="44" viewBox="0 0 121 44" fill="none" xmlns="http://www.w3.org/2000/svg">
<path d="M12.1107 7.0236H0.938965V37.9938H12.1107C16.8164 37.9938 20.7699 36.5385 23.5379 33.7942C26.2989 31.0569 27.7611 27.1553 27.7611 22.5122C27.7611 17.8691 26.2989 13.9744 23.5379 11.2301C20.7699 8.4789 16.8164 7.03053 12.1107 7.03053V7.0236ZM11.8481 32.4983H7.29138V12.4637H11.8481C17.8314 12.4637 21.4086 16.2197 21.4086 22.5122C21.4086 28.8046 17.8385 32.5052 11.8481 32.5052V32.4983Z" fill="white"/>
<path d="M59.7568 26.7811C59.7568 33.5726 64.9381 38.4998 71.901 38.4998C74.2716 38.4998 76.7487 37.6266 78.2321 36.2753V31.0362C76.848 32.1658 74.9742 33.2884 72.6817 33.2884C69.3742 33.2884 65.9034 31.0708 65.9034 26.7811C65.9034 24.8269 66.6771 23.1568 67.9972 21.9579C69.2109 20.856 70.9073 20.2462 72.6888 20.2462C74.7329 20.2462 76.6138 20.7798 78.2392 21.9301V16.9821C76.6138 15.7694 74.2006 15.014 71.908 15.014C64.9523 15.014 59.7639 19.962 59.7639 26.7811H59.7568Z" fill="white"/>
<path d="M93.8828 24.8197L91.278 24.0574C89.7094 23.5654 88.6803 23.1427 88.6803 21.7982C88.6803 20.5231 89.9294 19.7331 91.9381 19.7331C94.259 19.7331 96.6793 20.44 98.9435 21.923V16.9819C96.8213 15.6513 94.4294 15.0068 91.6258 15.0068C86.2528 15.0068 82.6401 17.8135 82.6401 21.9992C82.6401 25.4781 84.6488 27.5571 89.1558 28.7421L91.3987 29.3519C92.9601 29.844 94.1526 30.3291 94.1526 31.7151C94.1526 33.0249 92.8537 33.7802 90.5824 33.7802C88.3112 33.7802 85.1882 32.7477 82.6969 31.0429V36.282C84.5778 37.6541 87.6653 38.5065 90.7954 38.5065C96.6225 38.5065 100.249 35.8662 100.249 31.6181C100.249 28.0838 98.3473 26.0533 93.8899 24.8267L93.8828 24.8197Z" fill="white"/>
<path d="M43.7594 15.0068C36.1507 15.0068 31.3882 20.3637 31.3882 26.774C31.3882 33.1842 36.1436 38.4926 43.7594 38.4926C51.3752 38.4926 56.1236 33.1565 56.1236 26.774C56.1236 20.3915 51.3681 15.0068 43.7594 15.0068V15.0068ZM43.7594 33.3367C40.2745 33.3367 37.3999 30.3152 37.3999 26.774C37.3999 23.2328 40.0119 20.1628 43.7594 20.1628C47.507 20.1628 50.1189 23.1427 50.1189 26.774C50.1189 30.4053 47.4502 33.3367 43.7594 33.3367V33.3367Z" fill="white"/>
<path d="M111.315 1.83333C106.95 1.83333 103.394 5.30527 103.394 9.56722C103.394 13.8292 106.95 17.3011 111.315 17.3011C115.68 17.3011 119.236 13.8292 119.236 9.56722C119.236 5.30527 115.68 1.83333 111.315 1.83333ZM111.315 15.825C107.78 15.825 104.906 13.0184 104.906 9.56722C104.906 6.11608 107.78 3.30943 111.315 3.30943C114.85 3.30943 117.724 6.11608 117.724 9.56722C117.724 13.0184 114.85 15.825 111.315 15.825Z" fill="white"/>
<path d="M113.026 7.05189C112.436 7.05189 112.124 7.10733 111.996 7.13505C112.011 6.99645 112.032 6.6846 112.032 6.27573V5.51343H110.605V6.27573C110.605 6.67767 110.627 6.99645 110.641 7.13505C110.506 7.10733 110.194 7.05189 109.612 7.05189H107.326V8.44482H107.929C108.682 8.44482 109.164 8.3478 109.675 7.95279L109.81 8.09832C108.966 8.42403 108.171 9.318 108.171 10.4615C108.171 12.1177 109.498 13.3166 111.336 13.3166C113.168 13.3166 114.502 12.1177 114.502 10.4615C114.502 9.318 113.707 8.42403 112.862 8.09832L112.997 7.95279C113.501 8.3478 113.984 8.44482 114.743 8.44482H115.347V7.05189H113.061H113.026ZM113.054 10.3714C113.054 11.3277 112.337 11.993 111.315 11.993C110.293 11.993 109.576 11.3277 109.576 10.3714C109.576 9.41502 110.272 8.73588 111.315 8.73588C112.351 8.73588 113.054 9.39423 113.054 10.3714Z" fill="white"/>
</svg>
