<svg width="121" height="44" viewBox="0 0 121 44" fill="none" xmlns="http://www.w3.org/2000/svg">
<path d="M12.1112 7.02344H0.939453V37.9936H12.1112C16.8169 37.9936 20.7703 36.5383 23.5384 33.7941C26.2994 31.0567 27.7615 27.1551 27.7615 22.512C27.7615 17.8689 26.2994 13.9742 23.5384 11.23C20.7703 8.47874 16.8169 7.03037 12.1112 7.03037V7.02344ZM11.8486 32.4981H7.29187V12.4635H11.8486C17.8319 12.4635 21.4091 16.2196 21.4091 22.512C21.4091 28.8044 17.839 32.5051 11.8486 32.5051V32.4981Z" fill="#1050F0"/>
<path d="M59.7578 26.7808C59.7578 33.5722 64.9391 38.4995 71.9019 38.4995C74.2725 38.4995 76.7496 37.6263 78.233 36.2749V31.0358C76.849 32.1654 74.9752 33.2881 72.6827 33.2881C69.3752 33.2881 65.9044 31.0705 65.9044 26.7808C65.9044 24.8266 66.678 23.1564 67.9982 21.9575C69.2119 20.8557 70.9082 20.2458 72.6898 20.2458C74.7339 20.2458 76.6148 20.7794 78.2401 21.9298V16.9818C76.6148 15.769 74.2016 15.0137 71.909 15.0137C64.9533 15.0137 59.7649 19.9617 59.7649 26.7808H59.7578Z" fill="#1050F0"/>
<path d="M93.8833 24.8207L91.2785 24.0584C89.7099 23.5664 88.6807 23.1436 88.6807 21.7992C88.6807 20.5241 89.9299 19.7341 91.9386 19.7341C94.2595 19.7341 96.6798 20.4409 98.944 21.924V16.9829C96.8218 15.6523 94.4298 15.0078 91.6263 15.0078C86.2533 15.0078 82.6406 17.8145 82.6406 22.0002C82.6406 25.4791 84.6493 27.5581 89.1563 28.7431L91.3991 29.3529C92.9606 29.845 94.153 30.3301 94.153 31.7161C94.153 33.0258 92.8542 33.7812 90.5829 33.7812C88.3117 33.7812 85.1887 32.7486 82.6974 31.0438V36.2829C84.5783 37.6551 87.6658 38.5075 90.7958 38.5075C96.623 38.5075 100.25 35.8671 100.25 31.619C100.25 28.0847 98.3478 26.0542 93.8904 24.8276L93.8833 24.8207Z" fill="#1050F0"/>
<path d="M43.7599 15.0078C36.1512 15.0078 31.3887 20.3647 31.3887 26.775C31.3887 33.1852 36.1441 38.4936 43.7599 38.4936C51.3757 38.4936 56.124 33.1575 56.124 26.775C56.124 20.3924 51.3686 15.0078 43.7599 15.0078V15.0078ZM43.7599 33.3377C40.275 33.3377 37.4004 30.3162 37.4004 26.775C37.4004 23.2337 40.0123 20.1637 43.7599 20.1637C47.5075 20.1637 50.1194 23.1436 50.1194 26.775C50.1194 30.4063 47.4507 33.3377 43.7599 33.3377V33.3377Z" fill="#1050F0"/>
<path d="M111.316 1.83398C106.95 1.83398 103.395 5.30592 103.395 9.56787C103.395 13.8298 106.95 17.3018 111.316 17.3018C115.681 17.3018 119.237 13.8298 119.237 9.56787C119.237 5.30592 115.681 1.83398 111.316 1.83398ZM111.316 15.8257C107.781 15.8257 104.906 13.019 104.906 9.56787C104.906 6.11673 107.781 3.31008 111.316 3.31008C114.85 3.31008 117.725 6.11673 117.725 9.56787C117.725 13.019 114.85 15.8257 111.316 15.8257Z" fill="#1050F0"/>
<path d="M113.026 7.05213C112.436 7.05213 112.124 7.10757 111.996 7.13529C112.011 6.99669 112.032 6.68484 112.032 6.27597V5.51367H110.605V6.27597C110.605 6.67791 110.627 6.99669 110.641 7.13529C110.506 7.10757 110.194 7.05213 109.612 7.05213H107.326V8.44506H107.929C108.682 8.44506 109.164 8.34804 109.675 7.95303L109.81 8.09856C108.966 8.42427 108.171 9.31825 108.171 10.4617C108.171 12.118 109.498 13.3169 111.336 13.3169C113.168 13.3169 114.502 12.118 114.502 10.4617C114.502 9.31825 113.707 8.42427 112.862 8.09856L112.997 7.95303C113.501 8.34804 113.984 8.44506 114.743 8.44506H115.347V7.05213H113.061H113.026ZM113.054 10.3716C113.054 11.3279 112.337 11.9932 111.315 11.9932C110.293 11.9932 109.576 11.3279 109.576 10.3716C109.576 9.41527 110.272 8.73612 111.315 8.73612C112.351 8.73612 113.054 9.39448 113.054 10.3716Z" fill="#1050F0"/>
</svg>
