<svg width="40" height="40" viewBox="0 0 40 40" fill="none" xmlns="http://www.w3.org/2000/svg">
<g clip-path="url(#clip0_175_1663)">
<mask id="mask0_175_1663" style="mask-type:luminance" maskUnits="userSpaceOnUse" x="0" y="0" width="40" height="40">
<path d="M40 0H0V40H40V0Z" fill="white"/>
</mask>
<g mask="url(#mask0_175_1663)">
<path fill-rule="evenodd" clip-rule="evenodd" d="M18.2384 1.98577C18.1024 0.852734 17.1413 0 16.0001 0C14.8589 0 13.8977 0.852734 13.7618 1.98577L13.4633 4.47297C12.898 9.18422 9.18421 12.898 4.47296 13.4633L1.98577 13.7618C0.852736 13.8977 0 14.8589 0 16.0001C0 17.1412 0.852736 18.1024 1.98577 18.2384L4.47296 18.5369C9.18421 19.1022 12.898 22.816 13.4633 27.5271L13.7618 30.0143C13.8977 31.1474 14.8589 32.0002 16.0001 32.0002C17.1413 32.0002 18.1024 31.1474 18.2384 30.0143L18.5369 27.5271C19.1022 22.816 22.8159 19.1022 27.5272 18.5369L30.0144 18.2384C31.1475 18.1024 32.0003 17.1412 32.0003 16.0001C32.0003 14.8589 31.1475 13.8977 30.0144 13.7618L27.5272 13.4633C22.8159 12.898 19.1022 9.18422 18.5369 4.47297L18.2384 1.98577ZM32 24.0004C32.5704 24.0004 33.0512 24.4267 33.1192 24.9932L33.2683 26.2368C33.5509 28.5925 35.408 30.4493 37.7635 30.7319L39.0072 30.8813C39.5736 30.9493 40 31.4298 40 32.0005C40 32.5709 39.5736 33.0517 39.0072 33.1197L37.7635 33.2687C35.408 33.5514 33.5509 35.4085 33.2683 37.7639L33.1192 39.0077C33.0512 39.5741 32.5704 40.0005 32 40.0005C31.4293 40.0005 30.9488 39.5741 30.8808 39.0077L30.7315 37.7639C30.4488 35.4085 28.592 33.5514 26.2364 33.2687L24.9928 33.1197C24.4263 33.0517 23.9999 32.5709 23.9999 32.0005C23.9999 31.4298 24.4263 30.9493 24.9928 30.8813L26.2364 30.7319C28.592 30.4493 30.4488 28.5925 30.7315 26.2368L30.8808 24.9932C30.9488 24.4267 31.4293 24.0004 32 24.0004Z" fill="#E3E5FC"/>
</g>
</g>
<defs>
<clipPath id="clip0_175_1663">
<rect width="40" height="40" fill="white"/>
</clipPath>
</defs>
</svg>
