<svg width="16" height="16" viewBox="0 0 16 16" fill="none" xmlns="http://www.w3.org/2000/svg">
<mask id="mask0_284_3202" style="mask-type:luminance" maskUnits="userSpaceOnUse" x="0" y="0" width="16" height="16">
<path d="M16 0H0V16H16V0Z" fill="white"/>
</mask>
<g mask="url(#mask0_284_3202)">
<path fill-rule="evenodd" clip-rule="evenodd" d="M7.29536 0.794306C7.24097 0.341094 6.8565 0 6.40003 0C5.94357 0 5.55909 0.341094 5.50471 0.794306L5.38532 1.78919C5.15919 3.67369 3.67369 5.15918 1.78918 5.38533L0.794306 5.50472C0.341094 5.5591 0 5.94357 0 6.40004C0 6.85649 0.341094 7.24097 0.794306 7.29535L1.78918 7.41474C3.67369 7.64088 5.15919 9.12638 5.38532 11.0109L5.50471 12.0057C5.55909 12.459 5.94357 12.8001 6.40003 12.8001C6.8565 12.8001 7.24097 12.459 7.29536 12.0057L7.41474 11.0109C7.64089 9.12638 9.12638 7.64088 11.0109 7.41474L12.0058 7.29535C12.459 7.24097 12.8001 6.85649 12.8001 6.40004C12.8001 5.94357 12.459 5.5591 12.0058 5.50472L11.0109 5.38533C9.12638 5.15918 7.64089 3.67369 7.41474 1.78919L7.29536 0.794306ZM12.8 9.60014C13.0282 9.60014 13.2205 9.77069 13.2477 9.99729L13.3073 10.4947C13.4204 11.437 14.1632 12.1797 15.1054 12.2928L15.6029 12.3525C15.8294 12.3797 16 12.5719 16 12.8002C16 13.0283 15.8294 13.2207 15.6029 13.2479L15.1054 13.3075C14.1632 13.4206 13.4204 14.1634 13.3073 15.1056L13.2477 15.6031C13.2205 15.8296 13.0282 16.0002 12.8 16.0002C12.5717 16.0002 12.3795 15.8296 12.3523 15.6031L12.2926 15.1056C12.1795 14.1634 11.4368 13.4206 10.4946 13.3075L9.99712 13.2479C9.77051 13.2207 9.59996 13.0283 9.59996 12.8002C9.59996 12.5719 9.77051 12.3797 9.99712 12.3525L10.4946 12.2928C11.4368 12.1797 12.1795 11.437 12.2926 10.4947L12.3523 9.99729C12.3795 9.77069 12.5717 9.60014 12.8 9.60014Z" fill="#6646CC"/>
</g>
</svg>
